<svg xmlns="http://www.w3.org/2000/svg" version="1.1" xmlns:xlink="http://www.w3.org/1999/xlink" viewBox="0 0 200 200"><rect width="200" height="200" fill="url('#gradient')"></rect><defs><linearGradient id="gradient" gradientTransform="rotate(163 0.5 0.5)"><stop offset="0%" stop-color="#2dd12b"></stop><stop offset="100%" stop-color="#fff300"></stop></linearGradient></defs><g><g fill="#000000" transform="matrix(1.7552614036758405,0,0,1.7552614036758405,8.819703033516241,109.09291764375494)" stroke="#a49176" stroke-width="0.2"><path d="M9.17-4.81L12.58-4.81Q12.51-3.33 11.78-2.19Q11.04-1.05 9.72-0.43Q8.40 0.20 6.70 0.20L6.70 0.20Q3.90 0.20 2.29-1.63Q0.67-3.46 0.67-6.79L0.67-6.79L0.67-7.49Q0.67-9.58 1.40-11.15Q2.13-12.71 3.50-13.57Q4.86-14.42 6.66-14.42L6.66-14.42Q9.25-14.42 10.82-13.06Q12.39-11.70 12.61-9.31L12.61-9.31L9.19-9.31Q9.15-10.61 8.54-11.17Q7.92-11.74 6.66-11.74L6.66-11.74Q5.38-11.74 4.79-10.78Q4.19-9.82 4.16-7.72L4.16-7.72L4.16-6.72Q4.16-4.44 4.73-3.47Q5.30-2.49 6.70-2.49L6.70-2.49Q7.88-2.49 8.51-3.05Q9.13-3.60 9.17-4.81L9.17-4.81ZM13.64-4.82L13.63-5.38Q13.63-6.96 14.25-8.20Q14.86-9.43 16.02-10.10Q17.17-10.76 18.72-10.76L18.72-10.76Q21.09-10.76 22.46-9.29Q23.83-7.82 23.83-5.29L23.83-5.29L23.83-5.18Q23.83-2.71 22.46-1.25Q21.08 0.20 18.74 0.20L18.74 0.20Q16.48 0.20 15.12-1.16Q13.75-2.51 13.64-4.82L13.64-4.82ZM16.93-5.77L16.92-5.18Q16.92-3.71 17.38-3.03Q17.84-2.34 18.74-2.34L18.74-2.34Q20.50-2.34 20.54-5.05L20.54-5.05L20.54-5.38Q20.54-8.22 18.72-8.22L18.72-8.22Q17.07-8.22 16.93-5.77L16.93-5.77ZM25.30-10.57L28.39-10.57L28.50-9.33Q29.62-10.76 31.51-10.76L31.51-10.76Q33.52-10.76 34.22-9.17L34.22-9.17Q35.29-10.76 37.32-10.76L37.32-10.76Q40.54-10.76 40.63-6.88L40.63-6.88L40.63 0L37.32 0L37.32-6.67Q37.32-7.48 37.05-7.85Q36.78-8.22 36.05-8.22L36.05-8.22Q35.08-8.22 34.60-7.35L34.60-7.35L34.61-7.22L34.61 0L31.31 0L31.31-6.65Q31.31-7.48 31.04-7.85Q30.78-8.22 30.04-8.22L30.04-8.22Q29.09-8.22 28.59-7.35L28.59-7.35L28.59 0L25.30 0L25.30-10.57ZM52.31-5.36L52.31-5.21Q52.31-2.74 51.21-1.27Q50.10 0.20 48.21 0.20L48.21 0.20Q46.76 0.20 45.82-0.87L45.82-0.87L45.82 4.06L42.53 4.06L42.53-10.57L45.61-10.57L45.70-9.59Q46.65-10.76 48.19-10.76L48.19-10.76Q50.15-10.76 51.23-9.32Q52.31-7.88 52.31-5.36L52.31-5.36ZM49.02-5.06L49.02-5.41Q49.02-8.22 47.38-8.22L47.38-8.22Q46.21-8.22 45.82-7.38L45.82-7.38L45.82-3.22Q46.25-2.34 47.40-2.34L47.40-2.34Q48.97-2.34 49.02-5.06L49.02-5.06ZM53.36-4.82L53.35-5.38Q53.35-6.96 53.96-8.20Q54.58-9.43 55.73-10.10Q56.88-10.76 58.44-10.76L58.44-10.76Q60.81-10.76 62.18-9.29Q63.54-7.82 63.54-5.29L63.54-5.29L63.54-5.18Q63.54-2.71 62.17-1.25Q60.80 0.20 58.46 0.20L58.46 0.20Q56.20 0.20 54.83-1.16Q53.47-2.51 53.36-4.82L53.36-4.82ZM56.65-5.77L56.64-5.18Q56.64-3.71 57.10-3.03Q57.56-2.34 58.46-2.34L58.46-2.34Q60.21-2.34 60.25-5.05L60.25-5.05L60.25-5.38Q60.25-8.22 58.44-8.22L58.44-8.22Q56.79-8.22 56.65-5.77L56.65-5.77ZM70.53-2.97L70.53-2.97Q70.53-3.39 70.09-3.64Q69.65-3.90 68.42-4.17Q67.19-4.44 66.39-4.89Q65.59-5.33 65.17-5.97Q64.75-6.60 64.75-7.42L64.75-7.42Q64.75-8.88 65.95-9.82Q67.15-10.76 69.09-10.76L69.09-10.76Q71.18-10.76 72.45-9.81Q73.72-8.87 73.72-7.32L73.72-7.32L70.42-7.32Q70.42-8.59 69.08-8.59L69.08-8.59Q68.56-8.59 68.21-8.31Q67.86-8.02 67.86-7.59L67.86-7.59Q67.86-7.15 68.29-6.88Q68.72-6.60 69.66-6.43Q70.61-6.25 71.32-6.01L71.32-6.01Q73.70-5.19 73.70-3.07L73.70-3.07Q73.70-1.62 72.42-0.71Q71.13 0.20 69.09 0.20L69.09 0.20Q67.73 0.20 66.67-0.29Q65.61-0.78 65.01-1.62Q64.41-2.46 64.41-3.39L64.41-3.39L67.49-3.39Q67.51-2.66 67.98-2.32Q68.45-1.98 69.18-1.98L69.18-1.98Q69.85-1.98 70.19-2.26Q70.53-2.53 70.53-2.97ZM80.35 0.20L80.35 0.20Q77.92 0.20 76.42-1.25Q74.91-2.71 74.91-5.03L74.91-5.03L74.91-5.30Q74.91-6.92 75.51-8.16Q76.11-9.40 77.27-10.08Q78.42-10.76 80-10.76L80-10.76Q82.23-10.76 83.52-9.38Q84.80-8.00 84.80-5.53L84.80-5.53L84.80-4.25L78.26-4.25Q78.44-3.36 79.03-2.85Q79.63-2.34 80.58-2.34L80.58-2.34Q82.14-2.34 83.02-3.44L83.02-3.44L84.52-1.66Q83.91-0.81 82.78-0.31Q81.65 0.20 80.35 0.20ZM79.98-8.22L79.98-8.22Q78.54-8.22 78.26-6.31L78.26-6.31L81.58-6.31L81.58-6.56Q81.60-7.35 81.18-7.79Q80.76-8.22 79.98-8.22ZM94.00-14.22L97.43-14.22L97.43-4.91Q97.43-3.33 96.76-2.17Q96.08-1.02 94.82-0.41Q93.56 0.20 91.85 0.20L91.85 0.20Q89.25 0.20 87.75-1.15Q86.26-2.50 86.23-4.84L86.23-4.84L86.23-14.22L89.68-14.22L89.68-4.78Q89.74-2.44 91.85-2.44L91.85-2.44Q92.91-2.44 93.46-3.03Q94.00-3.61 94.00-4.93L94.00-4.93L94.00-14.22ZM103.22-14.22L103.22 0L99.80 0L99.80-14.22L103.22-14.22Z"></path></g></g></svg>