<svg xmlns="http://www.w3.org/2000/svg" version="1.1" xmlns:xlink="http://www.w3.org/1999/xlink" viewBox="0 0 200 200"><rect width="200" height="200" fill="url('#gradient')"></rect><defs><linearGradient id="gradient" gradientTransform="rotate(45 0.5 0.5)"><stop offset="0%" stop-color="#ba8d66"></stop><stop offset="100%" stop-color="#984a4d"></stop></linearGradient></defs><g><g fill="#2b3f3e" transform="matrix(2.3897316219369893,0,0,2.3897316219369893,8.318687256117009,112.94043441692338)" stroke="#5bcad4" stroke-width="0.2"><path d="M13.13-7.47L13.13-6.82Q13.13-4.84 12.48-3.37Q11.83-1.90 10.67-1.02L10.67-1.02L12.97 0.80L10.85 2.60L7.79 0.14Q7.36 0.20 6.93 0.20L6.93 0.20Q5.12 0.20 3.71-0.64Q2.30-1.48 1.52-3.05Q0.73-4.61 0.70-6.64L0.70-6.64L0.70-7.39Q0.70-9.49 1.47-11.08Q2.24-12.68 3.66-13.54Q5.08-14.41 6.91-14.41L6.91-14.41Q8.72-14.41 10.14-13.55Q11.55-12.70 12.34-11.11Q13.13-9.52 13.13-7.47L13.13-7.47ZM9.65-6.76L9.65-7.41Q9.65-9.53 8.94-10.63Q8.23-11.73 6.91-11.73L6.91-11.73Q5.56-11.73 4.87-10.64Q4.19-9.56 4.18-7.47L4.18-7.47L4.18-6.82Q4.18-4.72 4.87-3.60Q5.57-2.48 6.93-2.48L6.93-2.48Q8.24-2.48 8.94-3.58Q9.64-4.69 9.65-6.76L9.65-6.76ZM21.12 0L21.03-1.14Q19.98 0.20 18.20 0.20L18.20 0.20Q16.46 0.20 15.57-0.82Q14.68-1.83 14.68-3.72L14.68-3.72L14.68-10.57L17.97-10.57L17.97-3.70Q17.97-2.34 19.29-2.34L19.29-2.34Q20.42-2.34 20.90-3.15L20.90-3.15L20.90-10.57L24.21-10.57L24.21 0L21.12 0ZM29.48-10.57L29.48 0L26.18 0L26.18-10.57L29.48-10.57ZM25.99-13.29L25.99-13.29Q25.99-13.99 26.49-14.44Q27.00-14.89 27.81-14.89Q28.62-14.89 29.13-14.44Q29.64-13.99 29.64-13.29Q29.64-12.59 29.13-12.14Q28.62-11.69 27.81-11.69Q27.00-11.69 26.49-12.14Q25.99-12.59 25.99-13.29ZM40.10-8.79L35.39-2.54L40.21-2.54L40.21 0L31.23 0L31.23-1.84L35.92-8.03L31.44-8.03L31.44-10.57L40.10-10.57L40.10-8.79ZM50.86 0L50.03-2.66L45.33-2.66L44.51 0L40.85 0L46.06-14.22L49.29-14.22L54.54 0L50.86 0ZM47.68-10.23L46.15-5.30L49.21-5.30L47.68-10.23ZM64.77-5.36L64.77-5.21Q64.77-2.74 63.66-1.27Q62.55 0.20 60.66 0.20L60.66 0.20Q59.21 0.20 58.27-0.87L58.27-0.87L58.27 4.06L54.98 4.06L54.98-10.57L58.06-10.57L58.15-9.59Q59.10-10.76 60.64-10.76L60.64-10.76Q62.60-10.76 63.68-9.32Q64.77-7.88 64.77-5.36L64.77-5.36ZM61.47-5.06L61.47-5.41Q61.47-8.22 59.83-8.22L59.83-8.22Q58.66-8.22 58.27-7.38L58.27-7.38L58.27-3.22Q58.70-2.34 59.85-2.34L59.85-2.34Q61.43-2.34 61.47-5.06L61.47-5.06ZM76.03-5.36L76.03-5.21Q76.03-2.74 74.92-1.27Q73.81 0.20 71.92 0.20L71.92 0.20Q70.47 0.20 69.53-0.87L69.53-0.87L69.53 4.06L66.24 4.06L66.24-10.57L69.32-10.57L69.41-9.59Q70.36-10.76 71.90-10.76L71.90-10.76Q73.86-10.76 74.94-9.32Q76.03-7.88 76.03-5.36L76.03-5.36ZM72.73-5.06L72.73-5.41Q72.73-8.22 71.09-8.22L71.09-8.22Q69.92-8.22 69.53-7.38L69.53-7.38L69.53-3.22Q69.96-2.34 71.11-2.34L71.11-2.34Q72.69-2.34 72.73-5.06L72.73-5.06Z"></path></g></g></svg>